<svg xmlns="http://www.w3.org/2000/svg" xmlns:xlink="http://www.w3.org/1999/xlink" contentStyleType="text/css" height="848px" preserveAspectRatio="none" style="width:545px;height:848px;background:#FFFFFF;" version="1.1" viewBox="0 0 545 848" width="545px" zoomAndPan="magnify"><defs/><g><line style="stroke:#181818;stroke-width:0.5;stroke-dasharray:5.0,5.0;" x1="32" x2="32" y1="81.2969" y2="767.9531"/><line style="stroke:#181818;stroke-width:0.5;stroke-dasharray:5.0,5.0;" x1="97.4375" x2="97.4375" y1="81.2969" y2="767.9531"/><line style="stroke:#181818;stroke-width:0.5;stroke-dasharray:5.0,5.0;" x1="506.2627" x2="506.2627" y1="81.2969" y2="767.9531"/><text fill="#000000" font-family="sans-serif" font-size="14" lengthAdjust="spacing" textLength="49.4375" x="5" y="77.9951">Client1</text><ellipse cx="32.7188" cy="13.5" fill="#E2E2F0" rx="8" ry="8" style="stroke:#181818;stroke-width:0.5;"/><path d="M32.7188,21.5 L32.7188,48.5 M19.7188,29.5 L45.7188,29.5 M32.7188,48.5 L19.7188,63.5 M32.7188,48.5 L45.7188,63.5 " fill="none" style="stroke:#181818;stroke-width:0.5;"/><text fill="#000000" font-family="sans-serif" font-size="14" lengthAdjust="spacing" textLength="49.4375" x="5" y="779.9482">Client1</text><ellipse cx="32.7188" cy="791.75" fill="#E2E2F0" rx="8" ry="8" style="stroke:#181818;stroke-width:0.5;"/><path d="M32.7188,799.75 L32.7188,826.75 M19.7188,807.75 L45.7188,807.75 M32.7188,826.75 L19.7188,841.75 M32.7188,826.75 L45.7188,841.75 " fill="none" style="stroke:#181818;stroke-width:0.5;"/><text fill="#000000" font-family="sans-serif" font-size="14" lengthAdjust="spacing" textLength="49.4375" x="70.4375" y="77.9951">Client2</text><ellipse cx="98.1563" cy="13.5" fill="#E2E2F0" rx="8" ry="8" style="stroke:#181818;stroke-width:0.5;"/><path d="M98.1563,21.5 L98.1563,48.5 M85.1563,29.5 L111.1563,29.5 M98.1563,48.5 L85.1563,63.5 M98.1563,48.5 L111.1563,63.5 " fill="none" style="stroke:#181818;stroke-width:0.5;"/><text fill="#000000" font-family="sans-serif" font-size="14" lengthAdjust="spacing" textLength="49.4375" x="70.4375" y="779.9482">Client2</text><ellipse cx="98.1563" cy="791.75" fill="#E2E2F0" rx="8" ry="8" style="stroke:#181818;stroke-width:0.5;"/><path d="M98.1563,799.75 L98.1563,826.75 M85.1563,807.75 L111.1563,807.75 M98.1563,826.75 L85.1563,841.75 M98.1563,826.75 L111.1563,841.75 " fill="none" style="stroke:#181818;stroke-width:0.5;"/><text fill="#000000" font-family="sans-serif" font-size="14" lengthAdjust="spacing" textLength="45.9102" x="481.2627" y="77.9951">Server</text><ellipse cx="507.2178" cy="13.5" fill="#E2E2F0" rx="8" ry="8" style="stroke:#181818;stroke-width:0.5;"/><path d="M507.2178,21.5 L507.2178,48.5 M494.2178,29.5 L520.2178,29.5 M507.2178,48.5 L494.2178,63.5 M507.2178,48.5 L520.2178,63.5 " fill="none" style="stroke:#181818;stroke-width:0.5;"/><text fill="#000000" font-family="sans-serif" font-size="14" lengthAdjust="spacing" textLength="45.9102" x="481.2627" y="779.9482">Server</text><ellipse cx="507.2178" cy="791.75" fill="#E2E2F0" rx="8" ry="8" style="stroke:#181818;stroke-width:0.5;"/><path d="M507.2178,799.75 L507.2178,826.75 M494.2178,807.75 L520.2178,807.75 M507.2178,826.75 L494.2178,841.75 M507.2178,826.75 L520.2178,841.75 " fill="none" style="stroke:#181818;stroke-width:0.5;"/><rect fill="#EEEEEE" height="3" style="stroke:#EEEEEE;stroke-width:1.0;" width="538.1729" x="0" y="111.8633"/><line style="stroke:#000000;stroke-width:1.0;" x1="0" x2="538.1729" y1="111.8633" y2="111.8633"/><line style="stroke:#000000;stroke-width:1.0;" x1="0" x2="538.1729" y1="114.8633" y2="114.8633"/><rect fill="#EEEEEE" height="23.1328" style="stroke:#000000;stroke-width:2.0;" width="150.6523" x="193.7603" y="101.2969"/><text fill="#000000" font-family="sans-serif" font-size="13" font-weight="bold" lengthAdjust="spacing" textLength="132.1265" x="199.7603" y="117.3638">Joining the Server</text><polygon fill="#181818" points="495.2178,151.5625,505.2178,155.5625,495.2178,159.5625,499.2178,155.5625" style="stroke:#181818;stroke-width:1.0;"/><line style="stroke:#181818;stroke-width:1.0;" x1="32.7188" x2="501.2178" y1="155.5625" y2="155.5625"/><text fill="#000000" font-family="sans-serif" font-size="13" lengthAdjust="spacing" textLength="158.1709" x="39.7188" y="150.4966">USER_PROFILE &lt;name&gt;</text><polygon fill="#181818" points="43.7188,180.6953,33.7188,184.6953,43.7188,188.6953,39.7188,184.6953" style="stroke:#181818;stroke-width:1.0;"/><line style="stroke:#181818;stroke-width:1.0;" x1="37.7188" x2="506.2178" y1="184.6953" y2="184.6953"/><text fill="#000000" font-family="sans-serif" font-size="13" lengthAdjust="spacing" textLength="118.2759" x="49.7188" y="179.6294">USER_PROFILE OK</text><polygon fill="#181818" points="109.1563,209.8281,99.1563,213.8281,109.1563,217.8281,105.1563,213.8281" style="stroke:#181818;stroke-width:1.0;"/><line style="stroke:#181818;stroke-width:1.0;" x1="103.1563" x2="506.2178" y1="213.8281" y2="213.8281"/><text fill="#000000" font-family="sans-serif" font-size="13" lengthAdjust="spacing" textLength="131.9233" x="115.1563" y="208.7622">USER_JOIN &lt;name&gt;</text><rect fill="#EEEEEE" height="3" style="stroke:#EEEEEE;stroke-width:1.0;" width="538.1729" x="0" y="242.3945"/><line style="stroke:#000000;stroke-width:1.0;" x1="0" x2="538.1729" y1="242.3945" y2="242.3945"/><line style="stroke:#000000;stroke-width:1.0;" x1="0" x2="538.1729" y1="245.3945" y2="245.3945"/><rect fill="#EEEEEE" height="23.1328" style="stroke:#000000;stroke-width:2.0;" width="165.9312" x="186.1208" y="231.8281"/><text fill="#000000" font-family="sans-serif" font-size="13" font-weight="bold" lengthAdjust="spacing" textLength="147.4053" x="192.1208" y="247.895">Preparing the Game</text><polygon fill="#181818" points="495.2178,282.0938,505.2178,286.0938,495.2178,290.0938,499.2178,286.0938" style="stroke:#181818;stroke-width:1.0;"/><line style="stroke:#181818;stroke-width:1.0;" x1="32.7188" x2="501.2178" y1="286.0938" y2="286.0938"/><text fill="#000000" font-family="sans-serif" font-size="13" lengthAdjust="spacing" textLength="148.3892" x="39.7188" y="281.0278">USER_READY &lt;name&gt;</text><polygon fill="#181818" points="109.1563,311.2266,99.1563,315.2266,109.1563,319.2266,105.1563,315.2266" style="stroke:#181818;stroke-width:1.0;"/><line style="stroke:#181818;stroke-width:1.0;" x1="103.1563" x2="506.2178" y1="315.2266" y2="315.2266"/><text fill="#000000" font-family="sans-serif" font-size="13" lengthAdjust="spacing" textLength="148.3892" x="115.1563" y="310.1606">USER_READY &lt;name&gt;</text><rect fill="#EEEEEE" height="3" style="stroke:#EEEEEE;stroke-width:1.0;" width="538.1729" x="0" y="343.793"/><line style="stroke:#000000;stroke-width:1.0;" x1="0" x2="538.1729" y1="343.793" y2="343.793"/><line style="stroke:#000000;stroke-width:1.0;" x1="0" x2="538.1729" y1="346.793" y2="346.793"/><rect fill="#EEEEEE" height="23.1328" style="stroke:#000000;stroke-width:2.0;" width="153.6611" x="192.2559" y="333.2266"/><text fill="#000000" font-family="sans-serif" font-size="13" font-weight="bold" lengthAdjust="spacing" textLength="135.1353" x="198.2559" y="349.2935">Starting the Game</text><polygon fill="#181818" points="43.7188,383.4922,33.7188,387.4922,43.7188,391.4922,39.7188,387.4922" style="stroke:#181818;stroke-width:1.0;"/><line style="stroke:#181818;stroke-width:1.0;" x1="37.7188" x2="506.2178" y1="387.4922" y2="387.4922"/><text fill="#000000" font-family="sans-serif" font-size="13" lengthAdjust="spacing" textLength="155.2891" x="49.7188" y="382.4263">START_GAME &lt;text&gt; ...</text><polygon fill="#181818" points="109.1563,412.625,99.1563,416.625,109.1563,420.625,105.1563,416.625" style="stroke:#181818;stroke-width:1.0;"/><line style="stroke:#181818;stroke-width:1.0;" x1="103.1563" x2="506.2178" y1="416.625" y2="416.625"/><text fill="#000000" font-family="sans-serif" font-size="13" lengthAdjust="spacing" textLength="155.2891" x="115.1563" y="411.5591">START_GAME &lt;text&gt; ...</text><rect fill="#EEEEEE" height="3" style="stroke:#EEEEEE;stroke-width:1.0;" width="538.1729" x="0" y="445.1914"/><line style="stroke:#000000;stroke-width:1.0;" x1="0" x2="538.1729" y1="445.1914" y2="445.1914"/><line style="stroke:#000000;stroke-width:1.0;" x1="0" x2="538.1729" y1="448.1914" y2="448.1914"/><rect fill="#EEEEEE" height="23.1328" style="stroke:#000000;stroke-width:2.0;" width="155.1021" x="191.5354" y="434.625"/><text fill="#000000" font-family="sans-serif" font-size="13" font-weight="bold" lengthAdjust="spacing" textLength="136.5762" x="197.5354" y="450.6919">Updating Progress</text><polygon fill="#181818" points="495.2178,484.8906,505.2178,488.8906,495.2178,492.8906,499.2178,488.8906" style="stroke:#181818;stroke-width:1.0;"/><line style="stroke:#181818;stroke-width:1.0;" x1="32.7188" x2="501.2178" y1="488.8906" y2="488.8906"/><text fill="#000000" font-family="sans-serif" font-size="13" lengthAdjust="spacing" textLength="236.3613" x="39.7188" y="483.8247">USER_PROGRESS &lt;name&gt; &lt;score&gt;</text><polygon fill="#181818" points="43.7188,514.0234,33.7188,518.0234,43.7188,522.0234,39.7188,518.0234" style="stroke:#181818;stroke-width:1.0;"/><line style="stroke:#181818;stroke-width:1.0;" x1="37.7188" x2="506.2178" y1="518.0234" y2="518.0234"/><text fill="#000000" font-family="sans-serif" font-size="13" lengthAdjust="spacing" textLength="385.0615" x="49.7188" y="512.9575">USERS_PROGRESS &lt;name&gt; &lt;score&gt; &lt;name&gt; &lt;score&gt; ...</text><polygon fill="#181818" points="109.1563,543.1563,99.1563,547.1563,109.1563,551.1563,105.1563,547.1563" style="stroke:#181818;stroke-width:1.0;"/><line style="stroke:#181818;stroke-width:1.0;" x1="103.1563" x2="506.2178" y1="547.1563" y2="547.1563"/><text fill="#000000" font-family="sans-serif" font-size="13" lengthAdjust="spacing" textLength="385.0615" x="115.1563" y="542.0903">USERS_PROGRESS &lt;name&gt; &lt;score&gt; &lt;name&gt; &lt;score&gt; ...</text><rect fill="#EEEEEE" height="3" style="stroke:#EEEEEE;stroke-width:1.0;" width="538.1729" x="0" y="575.7227"/><line style="stroke:#000000;stroke-width:1.0;" x1="0" x2="538.1729" y1="575.7227" y2="575.7227"/><line style="stroke:#000000;stroke-width:1.0;" x1="0" x2="538.1729" y1="578.7227" y2="578.7227"/><rect fill="#EEEEEE" height="23.1328" style="stroke:#000000;stroke-width:2.0;" width="144.127" x="197.0229" y="565.1563"/><text fill="#000000" font-family="sans-serif" font-size="13" font-weight="bold" lengthAdjust="spacing" textLength="125.6011" x="203.0229" y="581.2231">Ending the Game</text><polygon fill="#181818" points="43.7188,615.4219,33.7188,619.4219,43.7188,623.4219,39.7188,619.4219" style="stroke:#181818;stroke-width:1.0;"/><line style="stroke:#181818;stroke-width:1.0;" x1="37.7188" x2="506.2178" y1="619.4219" y2="619.4219"/><text fill="#000000" font-family="sans-serif" font-size="13" lengthAdjust="spacing" textLength="186.1958" x="49.7188" y="614.356">END_GAME &lt;winner_name&gt;</text><polygon fill="#181818" points="109.1563,644.5547,99.1563,648.5547,109.1563,652.5547,105.1563,648.5547" style="stroke:#181818;stroke-width:1.0;"/><line style="stroke:#181818;stroke-width:1.0;" x1="103.1563" x2="506.2178" y1="648.5547" y2="648.5547"/><text fill="#000000" font-family="sans-serif" font-size="13" lengthAdjust="spacing" textLength="186.1958" x="115.1563" y="643.4888">END_GAME &lt;winner_name&gt;</text><rect fill="#EEEEEE" height="3" style="stroke:#EEEEEE;stroke-width:1.0;" width="538.1729" x="0" y="677.1211"/><line style="stroke:#000000;stroke-width:1.0;" x1="0" x2="538.1729" y1="677.1211" y2="677.1211"/><line style="stroke:#000000;stroke-width:1.0;" x1="0" x2="538.1729" y1="680.1211" y2="680.1211"/><rect fill="#EEEEEE" height="23.1328" style="stroke:#000000;stroke-width:2.0;" width="160.3643" x="188.9043" y="666.5547"/><text fill="#000000" font-family="sans-serif" font-size="13" font-weight="bold" lengthAdjust="spacing" textLength="141.8384" x="194.9043" y="682.6216">Quitting the Server</text><polygon fill="#181818" points="495.2178,716.8203,505.2178,720.8203,495.2178,724.8203,499.2178,720.8203" style="stroke:#181818;stroke-width:1.0;"/><line style="stroke:#181818;stroke-width:1.0;" x1="32.7188" x2="501.2178" y1="720.8203" y2="720.8203"/><text fill="#000000" font-family="sans-serif" font-size="13" lengthAdjust="spacing" textLength="135.8208" x="39.7188" y="715.7544">USER_QUIT &lt;name&gt;</text><polygon fill="#181818" points="109.1563,745.9531,99.1563,749.9531,109.1563,753.9531,105.1563,749.9531" style="stroke:#181818;stroke-width:1.0;"/><line style="stroke:#181818;stroke-width:1.0;" x1="103.1563" x2="506.2178" y1="749.9531" y2="749.9531"/><text fill="#000000" font-family="sans-serif" font-size="13" lengthAdjust="spacing" textLength="135.8208" x="115.1563" y="744.8872">USER_QUIT &lt;name&gt;</text><!--SRC=[bPB1Ri8m38RlUGg_m2gjnubMgaPMbG4jINlWL4KGiKWZHMxOzlXha94GD6CSRNs__zzErCPr2A-VHbltpDH55LCbDNvfP2n9ODOPQ-mEt8UcDYG9OwI6fvIwBz18BjfAb6_5dCF4ghrE6Ia6YWHNMFb-WyI4pCfYUHxZWrIe3mhFKVAX_sSGmRFfEXGZ7eEyYNGAtOt7o1QopaJTvjbYMDNf7vT254LZFkEWzseEMtNogh3ReUxxUuVD1PUIqiAattGOlh0C2QxBGEo7P_YDkDt-vtPyEQM3V1jhDRR1HmgGtcjrDCuzy35NJL7V-muNp2y0]--></g></svg>