<svg xmlns="http://www.w3.org/2000/svg" xmlns:xlink="http://www.w3.org/1999/xlink" contentStyleType="text/css" height="283px" preserveAspectRatio="none" style="width:274px;height:283px;background:#FFFFFF;" version="1.1" viewBox="0 0 274 283" width="274px" zoomAndPan="magnify"><defs/><g><line style="stroke:#181818;stroke-width:0.5;stroke-dasharray:5.0,5.0;" x1="32" x2="32" y1="81.2969" y2="202.6953"/><line style="stroke:#181818;stroke-width:0.5;stroke-dasharray:5.0,5.0;" x1="235.1675" x2="235.1675" y1="81.2969" y2="202.6953"/><text fill="#000000" font-family="sans-serif" font-size="14" lengthAdjust="spacing" textLength="49.4375" x="5" y="77.9951">Client1</text><ellipse cx="32.7188" cy="13.5" fill="#E2E2F0" rx="8" ry="8" style="stroke:#181818;stroke-width:0.5;"/><path d="M32.7188,21.5 L32.7188,48.5 M19.7188,29.5 L45.7188,29.5 M32.7188,48.5 L19.7188,63.5 M32.7188,48.5 L45.7188,63.5 " fill="none" style="stroke:#181818;stroke-width:0.5;"/><text fill="#000000" font-family="sans-serif" font-size="14" lengthAdjust="spacing" textLength="49.4375" x="5" y="214.6904">Client1</text><ellipse cx="32.7188" cy="226.4922" fill="#E2E2F0" rx="8" ry="8" style="stroke:#181818;stroke-width:0.5;"/><path d="M32.7188,234.4922 L32.7188,261.4922 M19.7188,242.4922 L45.7188,242.4922 M32.7188,261.4922 L19.7188,276.4922 M32.7188,261.4922 L45.7188,276.4922 " fill="none" style="stroke:#181818;stroke-width:0.5;"/><text fill="#000000" font-family="sans-serif" font-size="14" lengthAdjust="spacing" textLength="45.9102" x="210.1675" y="77.9951">Server</text><ellipse cx="236.1226" cy="13.5" fill="#E2E2F0" rx="8" ry="8" style="stroke:#181818;stroke-width:0.5;"/><path d="M236.1226,21.5 L236.1226,48.5 M223.1226,29.5 L249.1226,29.5 M236.1226,48.5 L223.1226,63.5 M236.1226,48.5 L249.1226,63.5 " fill="none" style="stroke:#181818;stroke-width:0.5;"/><text fill="#000000" font-family="sans-serif" font-size="14" lengthAdjust="spacing" textLength="45.9102" x="210.1675" y="214.6904">Server</text><ellipse cx="236.1226" cy="226.4922" fill="#E2E2F0" rx="8" ry="8" style="stroke:#181818;stroke-width:0.5;"/><path d="M236.1226,234.4922 L236.1226,261.4922 M223.1226,242.4922 L249.1226,242.4922 M236.1226,261.4922 L223.1226,276.4922 M236.1226,261.4922 L249.1226,276.4922 " fill="none" style="stroke:#181818;stroke-width:0.5;"/><rect fill="#EEEEEE" height="3" style="stroke:#EEEEEE;stroke-width:1.0;" width="267.0776" x="0" y="111.8633"/><line style="stroke:#000000;stroke-width:1.0;" x1="0" x2="267.0776" y1="111.8633" y2="111.8633"/><line style="stroke:#000000;stroke-width:1.0;" x1="0" x2="267.0776" y1="114.8633" y2="114.8633"/><rect fill="#EEEEEE" height="23.1328" style="stroke:#000000;stroke-width:2.0;" width="204.106" x="31.4858" y="101.2969"/><text fill="#000000" font-family="sans-serif" font-size="13" font-weight="bold" lengthAdjust="spacing" textLength="185.5801" x="37.4858" y="117.3638">Joining the Server (Error)</text><polygon fill="#181818" points="224.1226,151.5625,234.1226,155.5625,224.1226,159.5625,228.1226,155.5625" style="stroke:#181818;stroke-width:1.0;"/><line style="stroke:#181818;stroke-width:1.0;" x1="32.7188" x2="230.1226" y1="155.5625" y2="155.5625"/><text fill="#000000" font-family="sans-serif" font-size="13" lengthAdjust="spacing" textLength="158.1709" x="39.7188" y="150.4966">USER_PROFILE &lt;name&gt;</text><polygon fill="#181818" points="43.7188,180.6953,33.7188,184.6953,43.7188,188.6953,39.7188,184.6953" style="stroke:#181818;stroke-width:1.0;"/><line style="stroke:#181818;stroke-width:1.0;" x1="37.7188" x2="235.1226" y1="184.6953" y2="184.6953"/><text fill="#000000" font-family="sans-serif" font-size="13" lengthAdjust="spacing" textLength="179.4038" x="49.7188" y="179.6294">USER_PROFILE ERR &lt;msg&gt;</text><!--SRC=[IqmkoIzISCx9JCqhCUHA1FE2KulAKekuk6nj5RpoC_Coyz8LIZ9IeS8A6gv5HVb5cWgsjbnSK7qAkdPGMIk5q63NeFY087ytJnzN1PkynDnKEoweJg0gg0OqPQv1GGeskSNfTW00]--></g></svg>