<svg xmlns="http://www.w3.org/2000/svg" xmlns:xlink="http://www.w3.org/1999/xlink" contentStyleType="text/css" height="283px" preserveAspectRatio="none" style="width:280px;height:283px;background:#FFFFFF;" version="1.1" viewBox="0 0 280 283" width="280px" zoomAndPan="magnify"><defs/><g><line style="stroke:#181818;stroke-width:0.5;stroke-dasharray:5.0,5.0;" x1="32" x2="32" y1="81.2969" y2="202.6953"/><line style="stroke:#181818;stroke-width:0.5;stroke-dasharray:5.0,5.0;" x1="242.0229" x2="242.0229" y1="81.2969" y2="202.6953"/><text fill="#000000" font-family="sans-serif" font-size="14" lengthAdjust="spacing" textLength="49.4375" x="5" y="77.9951">Client1</text><ellipse cx="32.7188" cy="13.5" fill="#E2E2F0" rx="8" ry="8" style="stroke:#181818;stroke-width:0.5;"/><path d="M32.7188,21.5 L32.7188,48.5 M19.7188,29.5 L45.7188,29.5 M32.7188,48.5 L19.7188,63.5 M32.7188,48.5 L45.7188,63.5 " fill="none" style="stroke:#181818;stroke-width:0.5;"/><text fill="#000000" font-family="sans-serif" font-size="14" lengthAdjust="spacing" textLength="49.4375" x="5" y="214.6904">Client1</text><ellipse cx="32.7188" cy="226.4922" fill="#E2E2F0" rx="8" ry="8" style="stroke:#181818;stroke-width:0.5;"/><path d="M32.7188,234.4922 L32.7188,261.4922 M19.7188,242.4922 L45.7188,242.4922 M32.7188,261.4922 L19.7188,276.4922 M32.7188,261.4922 L45.7188,276.4922 " fill="none" style="stroke:#181818;stroke-width:0.5;"/><text fill="#000000" font-family="sans-serif" font-size="14" lengthAdjust="spacing" textLength="45.9102" x="217.0229" y="77.9951">Server</text><ellipse cx="242.978" cy="13.5" fill="#E2E2F0" rx="8" ry="8" style="stroke:#181818;stroke-width:0.5;"/><path d="M242.978,21.5 L242.978,48.5 M229.978,29.5 L255.978,29.5 M242.978,48.5 L229.978,63.5 M242.978,48.5 L255.978,63.5 " fill="none" style="stroke:#181818;stroke-width:0.5;"/><text fill="#000000" font-family="sans-serif" font-size="14" lengthAdjust="spacing" textLength="45.9102" x="217.0229" y="214.6904">Server</text><ellipse cx="242.978" cy="226.4922" fill="#E2E2F0" rx="8" ry="8" style="stroke:#181818;stroke-width:0.5;"/><path d="M242.978,234.4922 L242.978,261.4922 M229.978,242.4922 L255.978,242.4922 M242.978,261.4922 L229.978,276.4922 M242.978,261.4922 L255.978,276.4922 " fill="none" style="stroke:#181818;stroke-width:0.5;"/><rect fill="#EEEEEE" height="3" style="stroke:#EEEEEE;stroke-width:1;" width="273.9331" x="0" y="111.8633"/><line style="stroke:#000000;stroke-width:1;" x1="0" x2="273.9331" y1="111.8633" y2="111.8633"/><line style="stroke:#000000;stroke-width:1;" x1="0" x2="273.9331" y1="114.8633" y2="114.8633"/><rect fill="#EEEEEE" height="23.1328" style="stroke:#000000;stroke-width:2;" width="204.106" x="34.9136" y="101.2969"/><text fill="#000000" font-family="sans-serif" font-size="13" font-weight="bold" lengthAdjust="spacing" textLength="185.5801" x="40.9136" y="117.3638">Joining the Server (Error)</text><polygon fill="#181818" points="230.978,151.5625,240.978,155.5625,230.978,159.5625,234.978,155.5625" style="stroke:#181818;stroke-width:1;"/><line style="stroke:#181818;stroke-width:1;" x1="32.7188" x2="236.978" y1="155.5625" y2="155.5625"/><text fill="#000000" font-family="sans-serif" font-size="13" lengthAdjust="spacing" textLength="160.2783" x="39.7188" y="150.4966">USER_JOIN &lt;username&gt;</text><polygon fill="#181818" points="43.7188,180.6953,33.7188,184.6953,43.7188,188.6953,39.7188,184.6953" style="stroke:#181818;stroke-width:1;"/><line style="stroke:#181818;stroke-width:1;" x1="37.7188" x2="241.978" y1="184.6953" y2="184.6953"/><text fill="#000000" font-family="sans-serif" font-size="13" lengthAdjust="spacing" textLength="186.2593" x="49.7188" y="179.6294">USER_JOIN_ERR &lt;message&gt;</text><!--SRC=[IqmkoIzISCx9JCqhCUHA1FE2KulAKekuk6nj5RpoC_Coyz8LIZ9IeS8A6gv5HVb5cWgsjbnSK7qAkdPGMIk5q63Ne7WlVqy_1PlIujIYlCJSL3ikg5QWCgWE97Nnha512ZQvgSN5YUcfTW00]--></g></svg>