<svg xmlns="http://www.w3.org/2000/svg" xmlns:xlink="http://www.w3.org/1999/xlink" contentStyleType="text/css" height="1094px" preserveAspectRatio="none" style="width:707px;height:1094px;background:#FFFFFF;" version="1.1" viewBox="0 0 707 1094" width="707px" zoomAndPan="magnify"><defs/><g><line style="stroke:#181818;stroke-width:0.5;stroke-dasharray:5.0,5.0;" x1="32" x2="32" y1="81.2969" y2="1013.8828"/><line style="stroke:#181818;stroke-width:0.5;stroke-dasharray:5.0,5.0;" x1="97.4375" x2="97.4375" y1="81.2969" y2="1013.8828"/><line style="stroke:#181818;stroke-width:0.5;stroke-dasharray:5.0,5.0;" x1="668.8833" x2="668.8833" y1="81.2969" y2="1013.8828"/><text fill="#000000" font-family="sans-serif" font-size="14" lengthAdjust="spacing" textLength="49.4375" x="5" y="77.9951">Client1</text><ellipse cx="32.7188" cy="13.5" fill="#E2E2F0" rx="8" ry="8" style="stroke:#181818;stroke-width:0.5;"/><path d="M32.7188,21.5 L32.7188,48.5 M19.7188,29.5 L45.7188,29.5 M32.7188,48.5 L19.7188,63.5 M32.7188,48.5 L45.7188,63.5 " fill="none" style="stroke:#181818;stroke-width:0.5;"/><text fill="#000000" font-family="sans-serif" font-size="14" lengthAdjust="spacing" textLength="49.4375" x="5" y="1025.8779">Client1</text><ellipse cx="32.7188" cy="1037.6797" fill="#E2E2F0" rx="8" ry="8" style="stroke:#181818;stroke-width:0.5;"/><path d="M32.7188,1045.6797 L32.7188,1072.6797 M19.7188,1053.6797 L45.7188,1053.6797 M32.7188,1072.6797 L19.7188,1087.6797 M32.7188,1072.6797 L45.7188,1087.6797 " fill="none" style="stroke:#181818;stroke-width:0.5;"/><text fill="#000000" font-family="sans-serif" font-size="14" lengthAdjust="spacing" textLength="49.4375" x="70.4375" y="77.9951">Client2</text><ellipse cx="98.1563" cy="13.5" fill="#E2E2F0" rx="8" ry="8" style="stroke:#181818;stroke-width:0.5;"/><path d="M98.1563,21.5 L98.1563,48.5 M85.1563,29.5 L111.1563,29.5 M98.1563,48.5 L85.1563,63.5 M98.1563,48.5 L111.1563,63.5 " fill="none" style="stroke:#181818;stroke-width:0.5;"/><text fill="#000000" font-family="sans-serif" font-size="14" lengthAdjust="spacing" textLength="49.4375" x="70.4375" y="1025.8779">Client2</text><ellipse cx="98.1563" cy="1037.6797" fill="#E2E2F0" rx="8" ry="8" style="stroke:#181818;stroke-width:0.5;"/><path d="M98.1563,1045.6797 L98.1563,1072.6797 M85.1563,1053.6797 L111.1563,1053.6797 M98.1563,1072.6797 L85.1563,1087.6797 M98.1563,1072.6797 L111.1563,1087.6797 " fill="none" style="stroke:#181818;stroke-width:0.5;"/><text fill="#000000" font-family="sans-serif" font-size="14" lengthAdjust="spacing" textLength="45.9102" x="643.8833" y="77.9951">Server</text><ellipse cx="669.8384" cy="13.5" fill="#E2E2F0" rx="8" ry="8" style="stroke:#181818;stroke-width:0.5;"/><path d="M669.8384,21.5 L669.8384,48.5 M656.8384,29.5 L682.8384,29.5 M669.8384,48.5 L656.8384,63.5 M669.8384,48.5 L682.8384,63.5 " fill="none" style="stroke:#181818;stroke-width:0.5;"/><text fill="#000000" font-family="sans-serif" font-size="14" lengthAdjust="spacing" textLength="45.9102" x="643.8833" y="1025.8779">Server</text><ellipse cx="669.8384" cy="1037.6797" fill="#E2E2F0" rx="8" ry="8" style="stroke:#181818;stroke-width:0.5;"/><path d="M669.8384,1045.6797 L669.8384,1072.6797 M656.8384,1053.6797 L682.8384,1053.6797 M669.8384,1072.6797 L656.8384,1087.6797 M669.8384,1072.6797 L682.8384,1087.6797 " fill="none" style="stroke:#181818;stroke-width:0.5;"/><rect fill="#EEEEEE" height="3" style="stroke:#EEEEEE;stroke-width:1;" width="700.7935" x="0" y="111.8633"/><line style="stroke:#000000;stroke-width:1;" x1="0" x2="700.7935" y1="111.8633" y2="111.8633"/><line style="stroke:#000000;stroke-width:1;" x1="0" x2="700.7935" y1="114.8633" y2="114.8633"/><rect fill="#EEEEEE" height="23.1328" style="stroke:#000000;stroke-width:2;" width="262.8662" x="218.9636" y="101.2969"/><text fill="#000000" font-family="sans-serif" font-size="13" font-weight="bold" lengthAdjust="spacing" textLength="244.3403" x="224.9636" y="117.3638">Joining the Server (Notify server)</text><polygon fill="#181818" points="657.8384,151.5625,667.8384,155.5625,657.8384,159.5625,661.8384,155.5625" style="stroke:#181818;stroke-width:1;"/><line style="stroke:#181818;stroke-width:1;" x1="32.7188" x2="663.8384" y1="155.5625" y2="155.5625"/><text fill="#000000" font-family="sans-serif" font-size="13" lengthAdjust="spacing" textLength="160.2783" x="39.7188" y="150.4966">USER_JOIN &lt;username&gt;</text><polygon fill="#181818" points="43.7188,180.6953,33.7188,184.6953,43.7188,188.6953,39.7188,184.6953" style="stroke:#181818;stroke-width:1;"/><line style="stroke:#181818;stroke-width:1;" x1="37.7188" x2="668.8384" y1="184.6953" y2="184.6953"/><text fill="#000000" font-family="sans-serif" font-size="13" lengthAdjust="spacing" textLength="382.3765" x="49.7188" y="179.6294">OK &lt;username1&gt; &lt;status1&gt; &lt;username2&gt; &lt;status2&gt; ...</text><polygon fill="#181818" points="43.7188,209.8281,33.7188,213.8281,43.7188,217.8281,39.7188,213.8281" style="stroke:#181818;stroke-width:1;"/><polygon fill="#181818" points="657.8384,209.8281,667.8384,213.8281,657.8384,217.8281,661.8384,213.8281" style="stroke:#181818;stroke-width:1;"/><line style="stroke:#181818;stroke-width:1;stroke-dasharray:2.0,2.0;" x1="37.7188" x2="663.8384" y1="213.8281" y2="213.8281"/><text fill="#000000" font-family="sans-serif" font-size="13" lengthAdjust="spacing" textLength="173.9004" x="49.7188" y="208.7622">client join multicast group.</text><rect fill="#EEEEEE" height="3" style="stroke:#EEEEEE;stroke-width:1;" width="700.7935" x="0" y="242.3945"/><line style="stroke:#000000;stroke-width:1;" x1="0" x2="700.7935" y1="242.3945" y2="242.3945"/><line style="stroke:#000000;stroke-width:1;" x1="0" x2="700.7935" y1="245.3945" y2="245.3945"/><rect fill="#EEEEEE" height="23.1328" style="stroke:#000000;stroke-width:2;" width="264.8403" x="217.9766" y="231.8281"/><text fill="#000000" font-family="sans-serif" font-size="13" font-weight="bold" lengthAdjust="spacing" textLength="246.3145" x="223.9766" y="247.895">Joining the Server (Notify clients)</text><polygon fill="#181818" points="43.7188,282.0938,33.7188,286.0938,43.7188,290.0938,39.7188,286.0938" style="stroke:#181818;stroke-width:1;"/><line style="stroke:#181818;stroke-width:1;" x1="37.7188" x2="668.8384" y1="286.0938" y2="286.0938"/><text fill="#000000" font-family="sans-serif" font-size="13" lengthAdjust="spacing" textLength="152.5532" x="49.7188" y="281.0278">NEW_USER &lt;username</text><polygon fill="#181818" points="109.1563,311.2266,99.1563,315.2266,109.1563,319.2266,105.1563,315.2266" style="stroke:#181818;stroke-width:1;"/><line style="stroke:#181818;stroke-width:1;" x1="103.1563" x2="668.8384" y1="315.2266" y2="315.2266"/><text fill="#000000" font-family="sans-serif" font-size="13" lengthAdjust="spacing" textLength="163.4458" x="115.1563" y="310.1606">NEW_USER &lt;username&gt;</text><rect fill="#EEEEEE" height="3" style="stroke:#EEEEEE;stroke-width:1;" width="700.7935" x="0" y="343.793"/><line style="stroke:#000000;stroke-width:1;" x1="0" x2="700.7935" y1="343.793" y2="343.793"/><line style="stroke:#000000;stroke-width:1;" x1="0" x2="700.7935" y1="346.793" y2="346.793"/><rect fill="#EEEEEE" height="23.1328" style="stroke:#000000;stroke-width:2;" width="278.145" x="211.3242" y="333.2266"/><text fill="#000000" font-family="sans-serif" font-size="13" font-weight="bold" lengthAdjust="spacing" textLength="259.6191" x="217.3242" y="349.2935">Preparing the Game (Notify server)</text><polygon fill="#181818" points="657.8384,383.4922,667.8384,387.4922,657.8384,391.4922,661.8384,387.4922" style="stroke:#181818;stroke-width:1;"/><line style="stroke:#181818;stroke-width:1;" x1="32.7188" x2="663.8384" y1="387.4922" y2="387.4922"/><text fill="#000000" font-family="sans-serif" font-size="13" lengthAdjust="spacing" textLength="176.7441" x="39.7188" y="382.4263">USER_READY &lt;username&gt;</text><rect fill="#EEEEEE" height="3" style="stroke:#EEEEEE;stroke-width:1;" width="700.7935" x="0" y="416.0586"/><line style="stroke:#000000;stroke-width:1;" x1="0" x2="700.7935" y1="416.0586" y2="416.0586"/><line style="stroke:#000000;stroke-width:1;" x1="0" x2="700.7935" y1="419.0586" y2="419.0586"/><rect fill="#EEEEEE" height="23.1328" style="stroke:#000000;stroke-width:2;" width="280.1191" x="210.3372" y="405.4922"/><text fill="#000000" font-family="sans-serif" font-size="13" font-weight="bold" lengthAdjust="spacing" textLength="261.5933" x="216.3372" y="421.5591">Preparing the Game (Notify clients)</text><polygon fill="#181818" points="43.7188,455.7578,33.7188,459.7578,43.7188,463.7578,39.7188,459.7578" style="stroke:#181818;stroke-width:1;"/><line style="stroke:#181818;stroke-width:1;" x1="37.7188" x2="668.8384" y1="459.7578" y2="459.7578"/><text fill="#000000" font-family="sans-serif" font-size="13" lengthAdjust="spacing" textLength="176.7441" x="49.7188" y="454.6919">USER_READY &lt;username&gt;</text><polygon fill="#181818" points="109.1563,484.8906,99.1563,488.8906,109.1563,492.8906,105.1563,488.8906" style="stroke:#181818;stroke-width:1;"/><line style="stroke:#181818;stroke-width:1;" x1="103.1563" x2="668.8384" y1="488.8906" y2="488.8906"/><text fill="#000000" font-family="sans-serif" font-size="13" lengthAdjust="spacing" textLength="176.7441" x="115.1563" y="483.8247">USER_READY &lt;username&gt;</text><rect fill="#EEEEEE" height="3" style="stroke:#EEEEEE;stroke-width:1;" width="700.7935" x="0" y="517.457"/><line style="stroke:#000000;stroke-width:1;" x1="0" x2="700.7935" y1="517.457" y2="517.457"/><line style="stroke:#000000;stroke-width:1;" x1="0" x2="700.7935" y1="520.457" y2="520.457"/><rect fill="#EEEEEE" height="23.1328" style="stroke:#000000;stroke-width:2;" width="153.6611" x="273.5662" y="506.8906"/><text fill="#000000" font-family="sans-serif" font-size="13" font-weight="bold" lengthAdjust="spacing" textLength="135.1353" x="279.5662" y="522.9575">Starting the Game</text><polygon fill="#181818" points="43.7188,557.1563,33.7188,561.1563,43.7188,565.1563,39.7188,561.1563" style="stroke:#181818;stroke-width:1;"/><line style="stroke:#181818;stroke-width:1;" x1="37.7188" x2="668.8384" y1="561.1563" y2="561.1563"/><text fill="#000000" font-family="sans-serif" font-size="13" lengthAdjust="spacing" textLength="138.7598" x="49.7188" y="556.0903">START_GAME &lt;text&gt;</text><polygon fill="#181818" points="109.1563,586.2891,99.1563,590.2891,109.1563,594.2891,105.1563,590.2891" style="stroke:#181818;stroke-width:1;"/><line style="stroke:#181818;stroke-width:1;" x1="103.1563" x2="668.8384" y1="590.2891" y2="590.2891"/><text fill="#000000" font-family="sans-serif" font-size="13" lengthAdjust="spacing" textLength="138.7598" x="115.1563" y="585.2231">START_GAME &lt;text&gt;</text><rect fill="#EEEEEE" height="3" style="stroke:#EEEEEE;stroke-width:1;" width="700.7935" x="0" y="618.8555"/><line style="stroke:#000000;stroke-width:1;" x1="0" x2="700.7935" y1="618.8555" y2="618.8555"/><line style="stroke:#000000;stroke-width:1;" x1="0" x2="700.7935" y1="621.8555" y2="621.8555"/><rect fill="#EEEEEE" height="23.1328" style="stroke:#000000;stroke-width:2;" width="202.3667" x="249.2134" y="608.2891"/><text fill="#000000" font-family="sans-serif" font-size="13" font-weight="bold" lengthAdjust="spacing" textLength="183.8408" x="255.2134" y="624.356">Client Updating Progress</text><polygon fill="#181818" points="657.8384,658.5547,667.8384,662.5547,657.8384,666.5547,661.8384,662.5547" style="stroke:#181818;stroke-width:1;"/><line style="stroke:#181818;stroke-width:1;" x1="32.7188" x2="663.8384" y1="662.5547" y2="662.5547"/><text fill="#000000" font-family="sans-serif" font-size="13" lengthAdjust="spacing" textLength="302.7324" x="39.7188" y="657.4888">USER_PROGRESS &lt;username1&gt; &lt;progress1&gt;</text><rect fill="#EEEEEE" height="3" style="stroke:#EEEEEE;stroke-width:1;" width="700.7935" x="0" y="691.1211"/><line style="stroke:#000000;stroke-width:1;" x1="0" x2="700.7935" y1="691.1211" y2="691.1211"/><line style="stroke:#000000;stroke-width:1;" x1="0" x2="700.7935" y1="694.1211" y2="694.1211"/><rect fill="#EEEEEE" height="23.1328" style="stroke:#000000;stroke-width:2;" width="282.106" x="209.3438" y="680.5547"/><text fill="#000000" font-family="sans-serif" font-size="13" font-weight="bold" lengthAdjust="spacing" textLength="268.106" x="215.3438" y="696.6216">Server Updating Progress (every 2s)</text><polygon fill="#181818" points="43.7188,730.8203,33.7188,734.8203,43.7188,738.8203,39.7188,734.8203" style="stroke:#181818;stroke-width:1;"/><line style="stroke:#181818;stroke-width:1;" x1="37.7188" x2="668.8384" y1="734.8203" y2="734.8203"/><text fill="#000000" font-family="sans-serif" font-size="13" lengthAdjust="spacing" textLength="547.6821" x="49.7188" y="729.7544">ALL_USERS_PROGRESS &lt;username1&gt; &lt;progress1&gt; &lt;username2&gt; &lt;progress2&gt; ...</text><polygon fill="#181818" points="109.1563,759.9531,99.1563,763.9531,109.1563,767.9531,105.1563,763.9531" style="stroke:#181818;stroke-width:1;"/><line style="stroke:#181818;stroke-width:1;" x1="103.1563" x2="668.8384" y1="763.9531" y2="763.9531"/><text fill="#000000" font-family="sans-serif" font-size="13" lengthAdjust="spacing" textLength="547.6821" x="115.1563" y="758.8872">ALL_USERS_PROGRESS &lt;username1&gt; &lt;progress1&gt; &lt;username2&gt; &lt;progress2&gt; ...</text><rect fill="#EEEEEE" height="3" style="stroke:#EEEEEE;stroke-width:1;" width="700.7935" x="0" y="792.5195"/><line style="stroke:#000000;stroke-width:1;" x1="0" x2="700.7935" y1="792.5195" y2="792.5195"/><line style="stroke:#000000;stroke-width:1;" x1="0" x2="700.7935" y1="795.5195" y2="795.5195"/><rect fill="#EEEEEE" height="23.1328" style="stroke:#000000;stroke-width:2;" width="144.127" x="278.3333" y="781.9531"/><text fill="#000000" font-family="sans-serif" font-size="13" font-weight="bold" lengthAdjust="spacing" textLength="125.6011" x="284.3333" y="798.02">Ending the Game</text><polygon fill="#181818" points="43.7188,832.2188,33.7188,836.2188,43.7188,840.2188,39.7188,836.2188" style="stroke:#181818;stroke-width:1;"/><line style="stroke:#181818;stroke-width:1;" x1="37.7188" x2="668.8384" y1="836.2188" y2="836.2188"/><text fill="#000000" font-family="sans-serif" font-size="13" lengthAdjust="spacing" textLength="209.3267" x="49.7188" y="831.1528">END_GAME &lt;winnerUsername&gt;</text><polygon fill="#181818" points="109.1563,861.3516,99.1563,865.3516,109.1563,869.3516,105.1563,865.3516" style="stroke:#181818;stroke-width:1;"/><line style="stroke:#181818;stroke-width:1;" x1="103.1563" x2="668.8384" y1="865.3516" y2="865.3516"/><text fill="#000000" font-family="sans-serif" font-size="13" lengthAdjust="spacing" textLength="209.3267" x="115.1563" y="860.2856">END_GAME &lt;winnerUsername&gt;</text><rect fill="#EEEEEE" height="3" style="stroke:#EEEEEE;stroke-width:1;" width="700.7935" x="0" y="893.918"/><line style="stroke:#000000;stroke-width:1;" x1="0" x2="700.7935" y1="893.918" y2="893.918"/><line style="stroke:#000000;stroke-width:1;" x1="0" x2="700.7935" y1="896.918" y2="896.918"/><rect fill="#EEEEEE" height="23.1328" style="stroke:#000000;stroke-width:2;" width="160.3643" x="270.2146" y="883.3516"/><text fill="#000000" font-family="sans-serif" font-size="13" font-weight="bold" lengthAdjust="spacing" textLength="141.8384" x="276.2146" y="899.4185">Quitting the Server</text><polygon fill="#181818" points="657.8384,933.6172,667.8384,937.6172,657.8384,941.6172,661.8384,937.6172" style="stroke:#181818;stroke-width:1;"/><line style="stroke:#181818;stroke-width:1;" x1="32.7188" x2="663.8384" y1="937.6172" y2="937.6172"/><text fill="#000000" font-family="sans-serif" font-size="13" lengthAdjust="spacing" textLength="172.4468" x="39.7188" y="932.5513">USER_QUIT &lt;username1&gt;</text><polygon fill="#181818" points="43.7188,962.75,33.7188,966.75,43.7188,970.75,39.7188,966.75" style="stroke:#181818;stroke-width:1;"/><polygon fill="#181818" points="657.8384,962.75,667.8384,966.75,657.8384,970.75,661.8384,966.75" style="stroke:#181818;stroke-width:1;"/><line style="stroke:#181818;stroke-width:1;stroke-dasharray:2.0,2.0;" x1="37.7188" x2="663.8384" y1="966.75" y2="966.75"/><text fill="#000000" font-family="sans-serif" font-size="13" lengthAdjust="spacing" textLength="185.7515" x="49.7188" y="961.6841">client leave multicast group.</text><polygon fill="#181818" points="109.1563,991.8828,99.1563,995.8828,109.1563,999.8828,105.1563,995.8828" style="stroke:#181818;stroke-width:1;"/><line style="stroke:#181818;stroke-width:1;" x1="103.1563" x2="668.8384" y1="995.8828" y2="995.8828"/><text fill="#000000" font-family="sans-serif" font-size="13" lengthAdjust="spacing" textLength="166.3911" x="115.1563" y="990.8169">DEL_USER &lt;username1&gt;</text><!--SRC=[hLDTRu8m57tdLzn7VP047WsGaDaOdKC5oR8dqsZdkcWXRN7ptu-FCZyeE9EzqSFfEVVSteitCk7mjAU4ISl05oTRdIB2ZuGRXkl2DA6CiXt83w9Ww0M9fEyd4EMn3wvh64eD1fvY3I6EKBYUpYS1E5bEPVX0F4D9v3HrOmZpvpF1yi0H4ijC55yrQl-Y-PTfchMRCnXujTkcXE0pBnSEsLxI3HOITZp9KlDEZkggg89e2WpGwxe8SowemR9rBAziu8AJ5FFQUfpZ3pKmHFxexG7Dop2QB7fDJPnsyqXYBg-yM_eMhVnmjHxxBmWSIRwbrgT9AZogtn2dMrnQBNYouqI8pbOjmlauH55qFKwfkchbocNvLGrDwHx9yHFOej-Inv_DoXUExZfTZswDg-7LDE6Vb8juY6t_yZOe6AccVr7628-xPg6TN3WkCohbpMfrFTCodgmkutLiyvxW8sckiwR44PhTR9_b_G00]--></g></svg>