<svg xmlns="http://www.w3.org/2000/svg" xmlns:xlink="http://www.w3.org/1999/xlink" contentStyleType="text/css" height="283px" preserveAspectRatio="none" style="width:348px;height:283px;background:#FFFFFF;" version="1.1" viewBox="0 0 348 283" width="348px" zoomAndPan="magnify"><defs/><g><line style="stroke:#181818;stroke-width:0.5;stroke-dasharray:5.0,5.0;" x1="32" x2="32" y1="81.2969" y2="202.6953"/><line style="stroke:#181818;stroke-width:0.5;stroke-dasharray:5.0,5.0;" x1="309.7271" x2="309.7271" y1="81.2969" y2="202.6953"/><text fill="#000000" font-family="sans-serif" font-size="14" lengthAdjust="spacing" textLength="49.4375" x="5" y="77.9951">Client1</text><ellipse cx="32.7188" cy="13.5" fill="#E2E2F0" rx="8" ry="8" style="stroke:#181818;stroke-width:0.5;"/><path d="M32.7188,21.5 L32.7188,48.5 M19.7188,29.5 L45.7188,29.5 M32.7188,48.5 L19.7188,63.5 M32.7188,48.5 L45.7188,63.5 " fill="none" style="stroke:#181818;stroke-width:0.5;"/><text fill="#000000" font-family="sans-serif" font-size="14" lengthAdjust="spacing" textLength="49.4375" x="5" y="214.6904">Client1</text><ellipse cx="32.7188" cy="226.4922" fill="#E2E2F0" rx="8" ry="8" style="stroke:#181818;stroke-width:0.5;"/><path d="M32.7188,234.4922 L32.7188,261.4922 M19.7188,242.4922 L45.7188,242.4922 M32.7188,261.4922 L19.7188,276.4922 M32.7188,261.4922 L45.7188,276.4922 " fill="none" style="stroke:#181818;stroke-width:0.5;"/><text fill="#000000" font-family="sans-serif" font-size="14" lengthAdjust="spacing" textLength="45.9102" x="284.7271" y="77.9951">Server</text><ellipse cx="310.6821" cy="13.5" fill="#E2E2F0" rx="8" ry="8" style="stroke:#181818;stroke-width:0.5;"/><path d="M310.6821,21.5 L310.6821,48.5 M297.6821,29.5 L323.6821,29.5 M310.6821,48.5 L297.6821,63.5 M310.6821,48.5 L323.6821,63.5 " fill="none" style="stroke:#181818;stroke-width:0.5;"/><text fill="#000000" font-family="sans-serif" font-size="14" lengthAdjust="spacing" textLength="45.9102" x="284.7271" y="214.6904">Server</text><ellipse cx="310.6821" cy="226.4922" fill="#E2E2F0" rx="8" ry="8" style="stroke:#181818;stroke-width:0.5;"/><path d="M310.6821,234.4922 L310.6821,261.4922 M297.6821,242.4922 L323.6821,242.4922 M310.6821,261.4922 L297.6821,276.4922 M310.6821,261.4922 L323.6821,276.4922 " fill="none" style="stroke:#181818;stroke-width:0.5;"/><rect fill="#EEEEEE" height="3" style="stroke:#EEEEEE;stroke-width:1;" width="341.6372" x="0" y="111.8633"/><line style="stroke:#000000;stroke-width:1;" x1="0" x2="341.6372" y1="111.8633" y2="111.8633"/><line style="stroke:#000000;stroke-width:1;" x1="0" x2="341.6372" y1="114.8633" y2="114.8633"/><rect fill="#EEEEEE" height="23.1328" style="stroke:#000000;stroke-width:2;" width="169.0479" x="86.2947" y="101.2969"/><text fill="#000000" font-family="sans-serif" font-size="13" font-weight="bold" lengthAdjust="spacing" textLength="150.522" x="92.2947" y="117.3638">Generic Server Error</text><polygon fill="#181818" points="298.6821,151.5625,308.6821,155.5625,298.6821,159.5625,302.6821,155.5625" style="stroke:#181818;stroke-width:1;"/><line style="stroke:#181818;stroke-width:1;" x1="32.7188" x2="304.6821" y1="155.5625" y2="155.5625"/><text fill="#000000" font-family="sans-serif" font-size="13" lengthAdjust="spacing" textLength="253.9634" x="39.7188" y="150.4966">INVALID_REQUEST &lt;invalidArgument&gt;</text><polygon fill="#181818" points="43.7188,180.6953,33.7188,184.6953,43.7188,188.6953,39.7188,184.6953" style="stroke:#181818;stroke-width:1;"/><line style="stroke:#181818;stroke-width:1;" x1="37.7188" x2="309.6821" y1="184.6953" y2="184.6953"/><text fill="#000000" font-family="sans-serif" font-size="13" lengthAdjust="spacing" textLength="160.4243" x="49.7188" y="179.6294">ERROR &lt;errorMessage&gt;</text><!--SRC=[BOpB2eCm44NtynNp0rsu5HEG6aIeYh5sMu8E4j08u-FxJSiix-CSDnuRutFn58u4t3_rn1SnW59OKY3serHecEEk580G-D2ofLWrd_nL5Lzhki7qRynykDpYfvpdSurd3MA9ZE0f6cjRYndzn3Njkvj9tm00]--></g></svg>